<svg 
 xmlns="http://www.w3.org/2000/svg"
 xmlns:xlink="http://www.w3.org/1999/xlink"
 width="341px" height="524px">
<path fill-rule="evenodd"  stroke-width="2px" stroke-linecap="butt" stroke-linejoin="miter" opacity="0.8" fill="none"
 d="M282.121,422.732 L226.243,390.485 L226.243,325.993 L282.121,293.746 L338.000,325.993 L338.000,390.485 L282.121,422.732 ZM226.243,198.064 L226.243,133.572 L282.121,101.325 L338.000,133.572 L338.000,198.064 L282.121,230.311 L226.243,198.064 ZM170.182,99.739 L170.182,35.246 L226.061,3.000 L281.939,35.246 L281.939,99.739 L226.061,131.985 L170.182,99.739 ZM225.878,197.007 L170.000,229.254 L114.121,197.007 L114.121,132.514 L170.000,100.268 L225.878,132.514 L225.878,197.007 ZM58.061,99.739 L58.061,35.246 L113.939,3.000 L169.818,35.246 L169.818,99.739 L113.939,131.985 L58.061,99.739 ZM113.757,197.007 L57.878,229.254 L2.000,197.007 L2.000,132.514 L57.878,100.268 L113.757,132.514 L113.757,197.007 ZM280.881,229.782 L280.881,294.275 L225.003,326.521 L169.125,294.275 L169.125,229.782 L225.003,197.536 L280.881,229.782 ZM281.939,423.261 L281.939,487.753 L226.061,520.000 L170.182,487.753 L170.182,423.261 L226.061,391.014 L281.939,423.261 Z"/>
</svg>