<svg 
 xmlns="http://www.w3.org/2000/svg"
 xmlns:xlink="http://www.w3.org/1999/xlink"
 width="3.986cm" height="0.564cm">
<path fill-rule="evenodd"  fill="rgb(255, 255, 255)"
 d="M112.370,11.485 C111.949,12.474 111.353,13.292 110.580,13.941 C109.807,14.591 108.866,15.078 107.755,15.402 C106.645,15.727 105.399,15.889 104.018,15.889 C103.388,15.889 102.653,15.863 101.813,15.812 C100.972,15.760 100.147,15.653 99.336,15.491 L99.336,0.553 C100.147,0.405 100.991,0.306 101.869,0.254 C102.747,0.203 103.501,0.177 104.131,0.177 C105.467,0.177 106.678,0.324 107.766,0.619 C108.854,0.914 109.788,1.379 110.569,2.013 C111.349,2.648 111.949,3.459 112.370,4.448 C112.790,5.436 113.000,6.624 113.000,8.011 C113.000,9.339 112.790,10.497 112.370,11.485 ZM108.160,4.359 C107.350,3.533 106.067,3.120 104.311,3.120 C104.071,3.120 103.823,3.124 103.568,3.131 C103.313,3.139 103.073,3.157 102.848,3.186 L102.848,12.879 C103.013,12.894 103.204,12.905 103.422,12.912 C103.640,12.920 103.898,12.924 104.199,12.924 C105.954,12.924 107.256,12.488 108.104,11.618 C108.952,10.747 109.376,9.545 109.376,8.011 C109.376,6.403 108.971,5.185 108.160,4.359 ZM85.695,0.354 L96.230,0.354 L96.230,3.253 L89.207,3.253 L89.207,6.263 L95.442,6.263 L95.442,9.095 L89.207,9.095 L89.207,12.791 L96.748,12.791 L96.748,15.690 L85.695,15.690 L85.695,0.354 ZM78.942,10.821 C78.867,9.066 78.755,7.295 78.605,5.510 C78.335,6.130 78.034,6.816 77.704,7.568 C77.374,8.320 77.048,9.073 76.725,9.825 C76.403,10.578 76.091,11.297 75.791,11.983 C75.491,12.669 75.236,13.256 75.026,13.742 L72.572,13.742 C72.362,13.256 72.107,12.669 71.807,11.983 C71.507,11.297 71.195,10.578 70.873,9.825 C70.550,9.073 70.224,8.320 69.893,7.568 C69.563,6.816 69.263,6.130 68.993,5.510 C68.843,7.295 68.730,9.066 68.655,10.821 C68.580,12.577 68.520,14.200 68.475,15.690 L65.054,15.690 C65.114,14.480 65.185,13.189 65.268,11.817 C65.350,10.445 65.440,9.077 65.538,7.712 C65.635,6.347 65.748,5.034 65.875,3.773 C66.003,2.511 66.142,1.372 66.292,0.354 L69.646,0.354 C69.916,0.841 70.227,1.442 70.580,2.157 C70.933,2.873 71.300,3.647 71.683,4.481 C72.066,5.315 72.445,6.166 72.820,7.037 C73.195,7.908 73.548,8.726 73.878,9.493 C74.208,8.726 74.560,7.908 74.936,7.037 C75.311,6.166 75.690,5.315 76.072,4.481 C76.455,3.647 76.823,2.873 77.175,2.157 C77.528,1.442 77.839,0.841 78.110,0.354 L81.306,0.354 C81.456,1.372 81.595,2.511 81.722,3.773 C81.850,5.034 81.962,6.347 82.060,7.712 C82.158,9.077 82.248,10.445 82.330,11.817 C82.413,13.189 82.484,14.480 82.544,15.690 L79.122,15.690 C79.077,14.200 79.017,12.577 78.942,10.821 ZM59.167,14.052 C58.965,13.491 58.766,12.931 58.571,12.370 L52.493,12.370 C52.298,12.931 52.099,13.491 51.897,14.052 C51.694,14.613 51.510,15.159 51.345,15.690 L47.699,15.690 C48.284,14.038 48.839,12.510 49.364,11.109 C49.889,9.707 50.404,8.387 50.906,7.148 C51.409,5.908 51.904,4.732 52.392,3.618 C52.880,2.504 53.386,1.416 53.911,0.354 L57.265,0.354 C57.776,1.416 58.278,2.504 58.773,3.618 C59.269,4.732 59.768,5.908 60.270,7.148 C60.773,8.387 61.287,9.707 61.812,11.109 C62.338,12.510 62.893,14.038 63.478,15.690 L59.719,15.690 C59.554,15.159 59.370,14.613 59.167,14.052 ZM57.040,7.723 C56.815,7.118 56.601,6.565 56.399,6.063 C56.196,5.562 56.020,5.119 55.870,4.735 C55.720,4.352 55.600,4.050 55.510,3.828 C55.434,4.050 55.322,4.352 55.172,4.735 C55.022,5.119 54.849,5.562 54.654,6.063 C54.459,6.565 54.245,7.118 54.013,7.723 C53.780,8.328 53.544,8.962 53.303,9.626 L57.738,9.626 C57.498,8.962 57.265,8.328 57.040,7.723 ZM40.540,15.977 C39.370,15.977 38.308,15.801 37.355,15.446 C36.402,15.092 35.588,14.576 34.913,13.897 C34.238,13.219 33.716,12.385 33.348,11.397 C32.981,10.408 32.797,9.280 32.797,8.011 C32.797,6.727 33.000,5.591 33.405,4.603 C33.810,3.614 34.365,2.777 35.070,2.091 C35.776,1.405 36.605,0.885 37.558,0.531 C38.511,0.177 39.527,-0.000 40.608,-0.000 C41.343,-0.000 42.007,0.047 42.600,0.144 C43.193,0.239 43.703,0.350 44.131,0.475 C44.558,0.601 44.911,0.730 45.189,0.863 C45.466,0.996 45.665,1.099 45.785,1.173 L44.772,3.939 C44.292,3.688 43.741,3.470 43.118,3.286 C42.495,3.101 41.816,3.009 41.081,3.009 C39.445,3.009 38.263,3.456 37.535,4.348 C36.808,5.241 36.444,6.462 36.444,8.011 C36.444,8.763 36.534,9.445 36.714,10.058 C36.894,10.670 37.164,11.197 37.524,11.640 C37.884,12.083 38.334,12.426 38.875,12.669 C39.415,12.912 40.045,13.034 40.766,13.034 C41.156,13.034 41.490,13.027 41.767,13.012 C42.045,12.997 42.289,12.968 42.499,12.924 L42.499,7.590 L46.010,7.590 L46.010,15.181 C45.590,15.343 44.915,15.516 43.984,15.701 C43.054,15.885 41.906,15.977 40.540,15.977 ZM26.415,14.163 C26.123,13.647 25.823,13.145 25.515,12.658 C25.207,12.171 24.903,11.710 24.603,11.275 C24.303,10.840 24.003,10.445 23.703,10.091 L21.970,10.091 L21.970,15.690 L18.458,15.690 L18.458,0.575 C19.223,0.427 20.015,0.324 20.833,0.265 C21.651,0.206 22.382,0.177 23.028,0.177 C25.369,0.177 27.162,0.586 28.408,1.405 C29.653,2.224 30.276,3.496 30.276,5.222 C30.276,6.299 30.024,7.174 29.522,7.845 C29.019,8.516 28.295,9.043 27.350,9.427 C27.665,9.811 27.995,10.250 28.340,10.744 C28.685,11.238 29.027,11.754 29.364,12.293 C29.702,12.831 30.028,13.392 30.343,13.975 C30.659,14.558 30.951,15.129 31.221,15.690 L27.282,15.690 C26.997,15.188 26.708,14.679 26.415,14.163 ZM25.785,3.596 C25.207,3.279 24.356,3.120 23.230,3.120 C22.975,3.120 22.746,3.127 22.544,3.142 C22.341,3.157 22.150,3.172 21.970,3.186 L21.970,7.347 L22.960,7.347 C24.281,7.347 25.226,7.185 25.796,6.860 C26.367,6.535 26.652,5.982 26.652,5.200 C26.652,4.448 26.363,3.913 25.785,3.596 ZM13.303,13.975 C12.613,14.646 11.791,15.151 10.838,15.491 C9.886,15.830 8.861,16.000 7.766,16.000 C6.700,16.000 5.695,15.830 4.750,15.491 C3.804,15.151 2.979,14.646 2.273,13.975 C1.568,13.303 1.013,12.470 0.608,11.474 C0.203,10.478 -0.000,9.324 -0.000,8.011 C-0.000,6.698 0.210,5.543 0.630,4.547 C1.050,3.551 1.617,2.714 2.330,2.036 C3.043,1.357 3.868,0.848 4.806,0.509 C5.744,0.169 6.730,-0.000 7.766,-0.000 C8.831,-0.000 9.837,0.169 10.782,0.509 C11.728,0.848 12.553,1.357 13.258,2.036 C13.964,2.714 14.519,3.551 14.924,4.547 C15.329,5.543 15.532,6.698 15.532,8.011 C15.532,9.324 15.333,10.478 14.935,11.474 C14.538,12.470 13.994,13.303 13.303,13.975 ZM11.626,5.964 C11.439,5.352 11.169,4.828 10.816,4.392 C10.463,3.957 10.028,3.622 9.510,3.386 C8.993,3.150 8.411,3.031 7.766,3.031 C7.106,3.031 6.520,3.153 6.010,3.397 C5.500,3.640 5.068,3.979 4.716,4.414 C4.363,4.850 4.093,5.374 3.905,5.986 C3.718,6.598 3.624,7.273 3.624,8.011 C3.624,8.763 3.718,9.442 3.905,10.047 C4.093,10.652 4.363,11.172 4.716,11.607 C5.068,12.042 5.500,12.378 6.010,12.614 C6.520,12.850 7.106,12.968 7.766,12.968 C8.411,12.968 8.993,12.850 9.510,12.614 C10.028,12.378 10.463,12.042 10.816,11.607 C11.169,11.172 11.439,10.652 11.626,10.047 C11.814,9.442 11.908,8.763 11.908,8.011 C11.908,7.258 11.814,6.576 11.626,5.964 Z"/>
</svg>