<svg 
 xmlns="http://www.w3.org/2000/svg"
 xmlns:xlink="http://www.w3.org/1999/xlink"
 width="0.847cm" height="0.529cm">
<path fill-rule="evenodd"  opacity="0.2" fill="rgb(255, 255, 255)"
 d="M21.043,8.626 L21.043,10.725 L18.934,10.725 L18.934,8.626 L16.835,8.626 L16.835,6.516 L18.934,6.516 L18.934,4.417 L21.043,4.417 L21.043,6.516 L23.143,6.516 L23.143,8.626 L21.043,8.626 ZM7.363,14.934 C3.295,14.934 -0.000,11.639 -0.000,7.571 C-0.000,3.503 3.295,0.208 7.363,0.208 C9.351,0.208 11.009,0.931 12.295,2.137 L10.296,4.055 C9.753,3.533 8.799,2.920 7.363,2.920 C4.851,2.920 2.802,5.000 2.802,7.571 C2.802,10.142 4.851,12.222 7.363,12.222 C10.276,12.222 11.370,10.123 11.541,9.048 L7.363,9.048 L7.363,6.516 L14.314,6.516 C14.384,6.888 14.434,7.260 14.434,7.742 C14.434,11.950 11.611,14.934 7.363,14.934 Z"/>
</svg>