<?xml version="1.0" encoding="iso-8859-1"?>
<!-- Generator: Adobe Illustrator 21.0.2, SVG Export Plug-In . SVG Version: 6.00 Build 0)  -->
<svg xmlns="http://www.w3.org/2000/svg" xmlns:xlink="http://www.w3.org/1999/xlink" version="1.1" id="Layer_1" x="0px" y="0px" viewBox="0 0 40 40" style="enable-background:new 0 0 40 40;" xml:space="preserve">
<g>
	<g>
		<path style="fill:#D86464;" d="M6.928,15.367c1.715-0.146,7.182-1.104,7.454-7.438h0.358c-0.276,6.641-6.042,7.644-7.812,7.795    L6.928,15.367z"/>
		<path style="fill:#C74343;" d="M15.25,7.429h-1.357c0,7.353-7.161,7.463-7.466,7.464l0.001,1.357    C6.517,16.25,15.25,16.149,15.25,7.429L15.25,7.429z"/>
	</g>
</g>
<g>
	<g>
		<circle style="fill:#F78F8F;" cx="6.5" cy="14.5" r="3"/>
		<path style="fill:#C74343;" d="M6.5,12C7.879,12,9,13.122,9,14.5S7.879,17,6.5,17S4,15.878,4,14.5S5.121,12,6.5,12 M6.5,11    C4.567,11,3,12.567,3,14.5S4.567,18,6.5,18s3.5-1.567,3.5-3.5S8.433,11,6.5,11L6.5,11z"/>
	</g>
</g>
<g>
	<g>
		<path style="fill:#D86464;" d="M33.071,15.724c-1.77-0.151-7.535-1.154-7.812-7.795h0.358c0.272,6.334,5.739,7.293,7.454,7.438    L33.071,15.724z"/>
		<path style="fill:#C74343;" d="M26.107,7.429H24.75c0,8.721,8.733,8.821,8.821,8.821l0.001-1.357    C33.268,14.892,26.107,14.782,26.107,7.429L26.107,7.429z"/>
	</g>
</g>
<g>
	<g>
		<circle style="fill:#F78F8F;" cx="33.5" cy="14.5" r="3"/>
		<path style="fill:#C74343;" d="M33.5,12c1.379,0,2.5,1.122,2.5,2.5S34.879,17,33.5,17S31,15.878,31,14.5S32.121,12,33.5,12     M33.5,11c-1.933,0-3.5,1.567-3.5,3.5s1.567,3.5,3.5,3.5s3.5-1.567,3.5-3.5S35.433,11,33.5,11L33.5,11z"/>
	</g>
</g>
<g>
	<path style="fill:#FFD6D6;" d="M16.336,37.5c-0.563-1.4-2.836-7.26-2.836-10.714c0-2.063,0.82-3.071,1.614-4.045   c0.682-0.836,1.386-1.7,1.386-3.099c0-1.255-0.574-2.276-1.182-3.357C14.466,14.769,13.5,13.049,13.5,10V9.5H13   c-2.396,0-3.666-1.091-4.688-1.968C7.668,6.979,7.11,6.5,6.429,6.5C5.17,6.5,4.5,7.828,4.5,8.786c0,1.235,0.706,2.301,0.998,2.689   c-0.054,2.66-1.353,3.239-1.936,3.364C3.059,13.894,1.5,10.699,1.5,7.429C1.5,4.066,2.93,2.5,6,2.5   c1.199,0,2.178,0.685,3.213,1.409C10.33,4.691,11.485,5.5,13,5.5c1.468,0,2.608-0.532,3.712-1.047C17.762,3.963,18.754,3.5,20,3.5   s2.238,0.463,3.288,0.953C24.392,4.968,25.532,5.5,27,5.5c1.515,0,2.67-0.809,3.787-1.591C31.822,3.185,32.801,2.5,34,2.5   c3.07,0,4.5,1.566,4.5,4.929c0,3.266-1.554,6.454-2.06,7.407c-0.582-0.136-1.885-0.731-1.938-3.36   c0.292-0.389,0.998-1.454,0.998-2.689c0-0.958-0.67-2.286-1.929-2.286c-0.682,0-1.239,0.479-1.884,1.032   C30.666,8.409,29.396,9.5,27,9.5h-0.5V10c0,3.049-0.966,4.769-1.818,6.285c-0.607,1.081-1.182,2.103-1.182,3.357   c0,1.398,0.704,2.263,1.386,3.099c0.794,0.974,1.614,1.981,1.614,4.045c0,3.456-2.272,9.314-2.836,10.714H16.336z"/>
	<g>
		<path style="fill:#C74343;" d="M34,3c2.766,0,4,1.366,4,4.429c0,2.808-1.199,5.573-1.805,6.792    c-0.475-0.249-1.114-0.898-1.188-2.588C35.375,11.113,36,10.044,36,8.786C36,7.662,35.228,6,33.571,6    c-0.867,0-1.519,0.56-2.21,1.153C30.403,7.976,29.211,9,27,9h-1v1c0,2.918-0.932,4.577-1.754,6.04    C23.605,17.18,23,18.257,23,19.643c0,1.576,0.796,2.553,1.498,3.414C25.271,24.005,26,24.9,26,26.786    c0,3.153-1.97,8.427-2.675,10.214H20h-3.325C15.97,35.213,14,29.939,14,26.786c0-1.885,0.729-2.781,1.502-3.728    C16.204,22.196,17,21.219,17,19.643c0-1.386-0.605-2.463-1.246-3.603C14.932,14.577,14,12.918,14,10V9h-1    c-2.211,0-3.403-1.024-4.362-1.847C7.948,6.56,7.296,6,6.429,6C4.772,6,4,7.662,4,8.786c0,1.258,0.626,2.327,0.993,2.847    c-0.073,1.689-0.71,2.338-1.188,2.588C3.199,13.001,2,10.236,2,7.429C2,4.366,3.234,3,6,3c1.042,0,1.915,0.611,2.927,1.319    C10.052,5.107,11.328,6,13,6c1.579,0,2.824-0.581,3.923-1.094C17.921,4.44,18.865,4,20,4s2.079,0.44,3.077,0.906    C24.176,5.419,25.421,6,27,6c1.672,0,2.948-0.893,4.073-1.681C32.085,3.611,32.958,3,34,3 M34,2c-2.714,0-4.286,3-7,3    s-4.286-2-7-2s-4.286,2-7,2S8.714,2,6,2C1.929,2,1,4.714,1,7.429c0,4.071,2.286,7.946,2.286,7.946S6,15.375,6,11.304    c0,0-1-1.161-1-2.518C5,8.139,5.439,7,6.429,7c1.357,0,2.5,3,6.571,3c0,5.429,3,6.929,3,9.643c0,2.714-3,3.071-3,7.143    S16,38,16,38h4h4c0,0,3-7.143,3-11.214s-3-4.429-3-7.143c0-2.714,3-4.214,3-9.643c4.071,0,5.214-3,6.571-3    C34.561,7,35,8.139,35,8.786c0,1.357-1,2.518-1,2.518c0,4.071,2.714,4.071,2.714,4.071S39,11.5,39,7.429C39,4.714,38.071,2,34,2    L34,2z"/>
	</g>
</g>
<g>
	<g>
		<path style="fill:#D86464;" d="M18.5,26.5v-10c0-4.637-0.559-7.468-1.699-8.566c0.908-0.234,2.042-0.434,3.19-0.434    c1.111,0,2.263,0.196,3.205,0.436C22.058,9.036,21.5,11.866,21.5,16.5v10H18.5z"/>
		<path style="fill:#C74343;" d="M19.992,8c0.788,0,1.596,0.102,2.329,0.248C21.173,10.129,21,13.642,21,16.5V26h-1h-1v-9.5    c0-2.859-0.173-6.372-1.321-8.253C18.408,8.102,19.211,8,19.992,8 M19.992,7C17.927,7,15.87,7.624,15,8    c0.159-0.052,0.339-0.092,0.529-0.092C16.596,7.908,18,9.157,18,16.5c0,1.357,0,10.5,0,10.5h2h2c0,0,0-9.143,0-10.5    c0-7.343,1.404-8.592,2.471-8.592c0.19,0,0.37,0.04,0.529,0.092C24.13,7.624,22.056,7,19.992,7L19.992,7z"/>
	</g>
</g>
<g>
	<path style="fill:#F78F8F;" d="M18.786,37.5l-1.274-10.574c-0.063-0.569,0.125-1.134,0.53-1.586C18.52,24.806,19.233,24.5,20,24.5   s1.48,0.306,1.958,0.84c0.405,0.452,0.593,1.017,0.529,1.591L21.214,37.5H18.786z"/>
	<path style="fill:#C74343;" d="M20,25c0.625,0,1.203,0.245,1.586,0.673c0.309,0.344,0.452,0.771,0.406,1.192L20.771,37h-1.541   l-1.22-10.125c-0.048-0.431,0.096-0.857,0.405-1.202C18.797,25.245,19.375,25,20,25 M20,24c-1.775,0-3.161,1.387-2.985,2.985   L18.343,38h3.315l1.328-11.015C23.161,25.387,21.775,24,20,24L20,24z"/>
</g>
<g>
	<polygon style="fill:#C74343;" points="22,28 18,28 18,29 22,29 22,28  "/>
</g>
<g>
	<polygon style="fill:#C74343;" points="22,31 18,31 18,32 22,32 22,31  "/>
</g>
<g>
	<polygon style="fill:#C74343;" points="22,34 18,34 18,35 22,35 22,34  "/>
</g>
</svg>
