<?xml version="1.0" encoding="iso-8859-1"?>
<!-- Generator: Adobe Illustrator 21.0.2, SVG Export Plug-In . SVG Version: 6.00 Build 0)  -->
<svg xmlns="http://www.w3.org/2000/svg" xmlns:xlink="http://www.w3.org/1999/xlink" version="1.1" id="Layer_1" x="0px" y="0px" viewBox="0 0 40 40" style="enable-background:new 0 0 40 40;" xml:space="preserve">
<g>
	<path style="fill:#FFD6D6;" d="M7.5,38.5V20c0-4.136,3.364-7.5,7.5-7.5h9.41l-1.834,11H17c-2.481,0-4.5,2.019-4.5,4.5v10.5H7.5z"/>
	<g>
		<path style="fill:#C74343;" d="M23.82,13l-1.667,10H17c-2.757,0-5,2.243-5,5v10H8V20c0-3.86,3.14-7,7-7H23.82 M25,12H15    c-4.418,0-8,3.582-8,8v19h6V28c0-2.209,1.791-4,4-4h6L25,12L25,12z"/>
	</g>
</g>
<g>
	<path style="fill:#F78F8F;" d="M21.885,35.5c-3.448,0-6.361-3.162-6.361-6.904c0-1.497,0.558-3.064,1.568-4.411l0.226-0.3   l-0.226-0.3C16.096,22.256,15.5,20.542,15.5,19c0-1.441,0.504-2.785,1.587-4.23l0.296-0.395l-0.392-0.301   C15.478,12.909,14.5,10.525,14.5,8c0-3.767,2.539-6.5,6.038-6.5c0.236,0,0.467,0.018,0.695,0.046   C28.123,2.045,33.5,9.492,33.5,18.5c0,9.501-4.479,16.472-10.891,16.951C22.354,35.482,22.122,35.5,21.885,35.5z"/>
	<g>
		<path style="fill:#C74343;" d="M20.538,2c0.196,0,0.404,0.014,0.634,0.042l0.025,0.003l0.025,0.002C27.827,2.526,33,9.753,33,18.5    c0,9.228-4.288,15.993-10.477,16.457C22.29,34.986,22.081,35,21.885,35c-3.177,0-5.861-2.933-5.861-6.404    c0-1.39,0.522-2.85,1.469-4.111l0.451-0.6l-0.451-0.6C16.558,22.04,16,20.438,16,19c0-1.327,0.472-2.576,1.487-3.931l0.591-0.79    l-0.782-0.602C15.901,12.604,15,10.375,15,8C15,4.523,17.329,2,20.538,2 M20.538,1C16.821,1,14,3.911,14,8    c0,2.512,0.948,5.131,2.686,6.47C15.729,15.749,15,17.214,15,19c0,1.79,0.731,3.605,1.693,4.885    c-0.961,1.28-1.669,2.922-1.669,4.712c0,4.089,3.144,7.404,6.861,7.404c0.258,0,0.511-0.02,0.762-0.051    C29.633,35.427,34,27.827,34,18.5c0-9.333-5.625-16.937-12.705-17.45C21.046,1.019,20.795,1,20.538,1L20.538,1z"/>
	</g>
</g>
<g>
	<g>
		<path style="fill:#D86464;" d="M17.846,31.288c0-2.858,1.475-5.333,3.63-6.567c-1.398-1.357-2.284-3.336-2.284-5.548    c0-2.513,1.141-4.73,2.881-6.068c-0.063,0.002-0.125,0.01-0.189,0.01c-3.717,0-6.731-3.315-6.731-7.404    c0-0.742,0.102-1.457,0.287-2.133C14.425,4.875,14,6.155,14,8c0,2.512,0.948,5.131,2.686,6.47C15.729,15.749,15,17.214,15,19    c0,1.79,0.731,3.605,1.693,4.885c-0.961,1.28-1.669,2.922-1.669,4.712c0,2.898,1.648,5.401,3.853,6.616    C18.227,34.074,17.846,32.732,17.846,31.288z"/>
	</g>
</g>
<g>
	<g>
		<path style="fill:#C74343;" d="M20.538,2c0.196,0,0.404,0.014,0.634,0.042l0.025,0.003l0.025,0.002C27.827,2.526,33,9.753,33,18.5    c0,9.228-4.288,15.993-10.477,16.457C22.29,34.986,22.081,35,21.885,35c-3.177,0-5.861-2.933-5.861-6.404    c0-1.39,0.522-2.85,1.469-4.111l0.451-0.6l-0.451-0.6C16.558,22.04,16,20.438,16,19c0-1.327,0.472-2.576,1.487-3.931l0.591-0.79    l-0.782-0.602C15.901,12.604,15,10.375,15,8C15,4.523,17.329,2,20.538,2 M20.538,1C16.821,1,14,3.911,14,8    c0,2.512,0.948,5.131,2.686,6.47C15.729,15.749,15,17.214,15,19c0,1.79,0.731,3.605,1.693,4.885    c-0.961,1.28-1.669,2.922-1.669,4.712c0,4.089,3.144,7.404,6.861,7.404c0.258,0,0.511-0.02,0.762-0.051    C29.633,35.427,34,27.827,34,18.5c0-9.333-5.625-16.937-12.705-17.45C21.046,1.019,20.795,1,20.538,1L20.538,1z"/>
	</g>
</g>
<rect x="8" y="35" style="fill:#FFD6D6;" width="4" height="4"/>
</svg>
