<?xml version="1.0" encoding="iso-8859-1"?>
<!-- Generator: Adobe Illustrator 19.2.1, SVG Export Plug-In . SVG Version: 6.00 Build 0)  -->
<svg version="1.1" id="Layer_1" xmlns="http://www.w3.org/2000/svg" xmlns:xlink="http://www.w3.org/1999/xlink" x="0px" y="0px"
	 viewBox="0 0 40 40" style="enable-background:new 0 0 40 40;" xml:space="preserve">
<g>
	<path style="fill:#BAE0BD;" d="M34,16.109C34,10.526,29.383,6,23.687,6c-5.695,0-10.312,4.526-10.312,10.109
		c0,2.328,0.955,3.689,0.687,6.065C13.829,24.247,12,26.167,12,28.913C12,33.379,15.694,37,20.25,37C28.447,37,34,28.239,34,16.109z
		"/>
	<path style="fill:#5E9C76;" d="M23.687,6c-0.003,0-0.005,0-0.008,0c-0.001,0-0.002,0-0.003,0c-0.002,0-0.003,0-0.005,0
		c-0.001,0-0.002,0-0.003,0c-0.001,0-0.003,0-0.005,0c-0.001,0-0.002,0-0.004,0c-0.001,0-0.003,0-0.005,0c-0.001,0-0.002,0-0.003,0
		c-0.001,0-0.003,0-0.005,0c-0.001,0-0.002,0-0.003,0c-0.002,0-0.003,0-0.005,0c-0.001,0-0.002,0-0.003,0c-0.002,0-0.003,0-0.005,0
		c-0.001,0-0.002,0-0.003,0c-0.002,0-0.003,0-0.005,0c-0.001,0-0.002,0-0.004,0c-0.001,0-0.003,0-0.005,0c-0.001,0-0.002,0-0.003,0
		c-0.001,0-0.003,0-0.005,0c-0.001,0-0.002,0-0.003,0c-0.002,0-0.003,0-0.005,0c-0.001,0-0.002,0-0.003,0c-0.002,0-0.003,0-0.005,0
		c-0.001,0-0.002,0-0.003,0c-0.002,0-0.003,0-0.005,0c-0.001,0-0.002,0-0.003,0c-0.002,0-0.004,0-0.005,0c-0.001,0-0.002,0-0.003,0
		c-0.002,0-0.004,0-0.006,0c0,0-0.001,0-0.002,0c-0.002,0-0.004,0-0.006,0c-0.001,0-0.001,0-0.002,0c-0.003,0-0.005,0-0.008,0l0,0
		c-0.006,0-0.011,0-0.017,0l0,0c-0.003,0-0.005,0-0.008,0c0,0-0.001,0-0.002,0c-0.002,0-0.004,0-0.006,0c-0.001,0-0.002,0-0.002,0
		c-0.002,0-0.004,0-0.006,0c-0.001,0-0.002,0-0.002,0c-0.003,0-0.005,0-0.007,0c-0.001,0-0.002,0-0.003,0c-0.002,0-0.004,0-0.005,0
		c-0.001,0-0.002,0-0.003,0c-0.002,0-0.003,0-0.005,0c-0.001,0-0.002,0-0.003,0c-0.002,0-0.003,0-0.005,0c-0.001,0-0.002,0-0.003,0
		c-0.002,0-0.003,0-0.005,0c-0.001,0-0.002,0-0.002,0c-0.003,0-0.005,0-0.006,0c-0.001,0-0.002,0-0.003,0c-0.002,0-0.004,0-0.005,0
		c-0.001,0-0.002,0-0.003,0c-0.002,0-0.004,0-0.006,0c-0.001,0-0.002,0-0.002,0c-0.002,0-0.004,0-0.006,0c0,0-0.001,0-0.002,0
		c-0.002,0-0.004,0-0.006,0c-0.001,0-0.001,0-0.002,0c-0.002,0-0.004,0-0.007,0l-0.001,0c-0.014,0-0.027,0.001-0.041,0.001
		c0,0-0.001,0-0.001,0c-0.003,0-0.005,0-0.007,0c-0.001,0-0.001,0-0.001,0c-0.003,0-0.005,0-0.007,0c-0.001,0-0.002,0-0.002,0
		c-0.002,0-0.004,0-0.006,0c-0.001,0-0.002,0-0.002,0c-0.002,0-0.004,0-0.006,0c0,0-0.002,0-0.002,0c-0.002,0-0.004,0-0.006,0
		c-0.001,0-0.002,0-0.002,0c-0.002,0-0.004,0-0.006,0c-0.001,0-0.002,0-0.002,0c-0.003,0-0.004,0-0.007,0c-0.001,0-0.002,0-0.002,0
		c-0.003,0-0.005,0-0.007,0c-0.001,0-0.002,0-0.002,0c-0.002,0-0.004,0-0.006,0c-0.001,0-0.002,0-0.002,0c-0.002,0-0.004,0-0.006,0
		c-0.001,0-0.002,0-0.002,0c-0.002,0-0.004,0-0.006,0c-0.001,0-0.001,0-0.002,0c-0.002,0-0.004,0-0.007,0c0,0-0.001,0-0.001,0
		c-0.003,0-0.005,0-0.008,0l0,0c-0.011,0-0.022,0.001-0.033,0.001c0,0-0.001,0-0.001,0c-0.002,0-0.005,0-0.007,0
		c0,0-0.001,0-0.002,0c-0.002,0-0.004,0-0.006,0c-0.001,0-0.001,0-0.002,0c-0.002,0-0.004,0-0.006,0c-0.001,0-0.002,0-0.002,0
		c-0.003,0-0.005,0-0.006,0c-0.001,0-0.002,0-0.003,0c-0.002,0-0.004,0-0.005,0c-0.001,0-0.002,0-0.003,0c-0.002,0-0.004,0-0.005,0
		c-0.001,0-0.002,0-0.003,0c-0.002,0-0.003,0-0.005,0c-0.001,0-0.002,0-0.003,0c-0.002,0-0.003,0-0.005,0c-0.001,0-0.002,0-0.003,0
		c-0.002,0-0.003,0-0.005,0c-0.001,0-0.002,0-0.004,0c-0.002,0-0.003,0-0.005,0c-0.001,0-0.002,0-0.003,0c-0.002,0-0.003,0-0.005,0
		c-0.001,0-0.002,0-0.003,0c-0.002,0-0.004,0-0.005,0c-0.001,0-0.002,0-0.002,0c-0.003,0-0.005,0-0.006,0c-0.001,0-0.002,0-0.003,0
		c-0.002,0-0.003,0-0.006,0c-0.001,0-0.002,0-0.003,0c-0.002,0-0.003,0-0.006,0c-0.001,0-0.002,0-0.003,0c-0.003,0-0.005,0-0.008,0
		c0,0-0.001,0-0.002,0c-0.002,0-0.004,0-0.006,0c-0.001,0-0.003,0-0.004,0c-0.001,0-0.003,0-0.004,0c-0.001,0-0.003,0-0.004,0
		c-0.001,0-0.002,0-0.004,0c-0.001,0-0.003,0-0.004,0c-0.001,0-0.003,0-0.004,0c-0.001,0-0.003,0-0.004,0c-0.001,0-0.003,0-0.004,0
		c-0.001,0-0.003,0-0.004,0c-0.001,0-0.003,0-0.004,0c-0.001,0-0.003,0-0.004,0c-0.001,0-0.002,0-0.003,0c-0.002,0-0.003,0-0.005,0
		c-0.001,0-0.002,0-0.003,0c-0.002,0-0.003,0-0.005,0c-0.001,0-0.002,0-0.003,0c-0.002,0-0.003,0-0.005,0c-0.001,0-0.002,0-0.003,0
		c-0.002,0-0.004,0-0.005,0c-0.001,0-0.001,0-0.003,0c-0.002,0-0.004,0-0.005,0c-0.001,0-0.002,0-0.002,0c-0.002,0-0.004,0-0.006,0
		c-0.001,0-0.001,0-0.001,0c-0.003,0-0.005,0-0.007,0l-0.001,0c-0.002,0-0.005,0-0.007,0c0,0,0,0,0,0
		c-0.099,0.007-0.197,0.014-0.294,0.024l0.281,2.987C23.207,9.011,23.448,9,23.687,9V6L23.687,6L23.687,6z M18.874,7.166
		c-0.062,0.032-0.123,0.065-0.184,0.098l0,0c-0.002,0.001-0.004,0.002-0.006,0.003c0,0,0,0,0,0
		c-0.002,0.001-0.004,0.002-0.006,0.003l-0.001,0.001c-0.002,0.001-0.003,0.002-0.005,0.003c-0.001,0-0.001,0.001-0.002,0.001
		c-0.001,0.001-0.003,0.002-0.004,0.002c-0.001,0.001-0.002,0.001-0.003,0.002c-0.001,0.001-0.002,0.001-0.004,0.002
		c-0.001,0.001-0.002,0.001-0.003,0.002c-0.001,0.001-0.002,0.001-0.003,0.002c-0.001,0.001-0.003,0.001-0.004,0.002
		c-0.001,0-0.002,0.001-0.003,0.001C18.643,7.29,18.642,7.29,18.64,7.291c-0.001,0-0.001,0.001-0.002,0.001
		c-0.002,0.001-0.003,0.002-0.005,0.003l-0.001,0.001c-0.002,0.001-0.004,0.002-0.006,0.003L18.625,7.3
		c-0.002,0.001-0.004,0.002-0.006,0.003l0,0c-0.166,0.092-0.33,0.189-0.49,0.29l0,0c-0.002,0.001-0.004,0.003-0.006,0.004
		c-0.001,0-0.002,0.001-0.002,0.001c-0.002,0.001-0.003,0.002-0.005,0.003c-0.001,0.001-0.002,0.001-0.003,0.002
		c-0.001,0.001-0.002,0.002-0.004,0.002c-0.001,0.001-0.002,0.001-0.003,0.002c-0.001,0.001-0.002,0.001-0.003,0.002
		C18.101,7.61,18.1,7.611,18.099,7.612c-0.001,0.001-0.002,0.001-0.003,0.002c-0.001,0.001-0.003,0.002-0.004,0.003
		c-0.001,0-0.001,0.001-0.001,0.001c-0.003,0.002-0.004,0.002-0.006,0.004c0,0-0.001,0.001-0.001,0.001
		c-0.002,0.001-0.004,0.002-0.005,0.003c0,0-0.001,0-0.001,0.001c-0.002,0.001-0.004,0.003-0.006,0.004l0,0
		c-0.02,0.013-0.04,0.026-0.06,0.039l1.631,2.518c0.198-0.128,0.404-0.248,0.614-0.357L18.874,7.166L18.874,7.166z M15.153,10.432
		c-0.011,0.017-0.023,0.033-0.034,0.05l0,0c-0.001,0.002-0.003,0.004-0.004,0.006c0,0,0,0.001-0.001,0.001
		c-0.001,0.002-0.002,0.003-0.003,0.005l-0.001,0.002c-0.001,0.001-0.002,0.003-0.003,0.005c0,0.001-0.001,0.001-0.001,0.002
		c-0.001,0.001-0.002,0.003-0.003,0.004c-0.001,0.001-0.001,0.002-0.002,0.003c-0.001,0.001-0.002,0.002-0.003,0.004
		c-0.001,0.001-0.001,0.002-0.002,0.003c-0.001,0.001-0.001,0.002-0.002,0.003c-0.001,0.001-0.001,0.002-0.002,0.003
		c-0.001,0.001-0.001,0.002-0.002,0.003c-0.001,0.001-0.001,0.002-0.002,0.003c-0.001,0.001-0.001,0.002-0.002,0.003
		c-0.001,0.001-0.002,0.002-0.002,0.004c-0.001,0.001-0.001,0.002-0.002,0.003c-0.001,0.001-0.002,0.003-0.003,0.004
		c-0.001,0.001-0.001,0.002-0.002,0.002c-0.001,0.001-0.002,0.003-0.003,0.004c-0.001,0.001-0.001,0.001-0.001,0.002
		c-0.001,0.001-0.002,0.003-0.003,0.004c0,0-0.001,0.001-0.001,0.002c-0.001,0.002-0.002,0.003-0.003,0.005
		c0,0.001-0.001,0.001-0.001,0.002c-0.001,0.002-0.002,0.003-0.003,0.005c0,0-0.001,0.001-0.001,0.001
		c-0.001,0.002-0.002,0.004-0.004,0.005c0,0,0,0.001-0.001,0.001c-0.001,0.002-0.003,0.004-0.004,0.006c0,0,0,0,0,0
		c-0.001,0.002-0.003,0.004-0.004,0.006l0,0.001c-0.001,0.002-0.003,0.004-0.004,0.006l0,0c-0.112,0.169-0.22,0.341-0.322,0.517
		c0,0.001-0.001,0.001-0.001,0.001c-0.001,0.002-0.002,0.004-0.003,0.006c0,0.001-0.001,0.002-0.002,0.003
		c-0.001,0.001-0.001,0.003-0.002,0.004c0,0.001-0.001,0.002-0.002,0.003c-0.001,0.001-0.001,0.003-0.002,0.004
		c0,0-0.001,0.002-0.002,0.003c-0.001,0.001-0.001,0.002-0.002,0.004c-0.001,0.001-0.002,0.003-0.002,0.004
		c0,0.001-0.001,0.002-0.001,0.003c-0.001,0.002-0.002,0.003-0.003,0.005c0,0.001-0.001,0.001-0.001,0.001
		c-0.001,0.003-0.002,0.004-0.003,0.006c0,0-0.001,0.001-0.001,0.001c-0.001,0.002-0.002,0.004-0.004,0.006l0,0
		c-0.001,0.002-0.002,0.004-0.004,0.007l0,0c-0.021,0.037-0.042,0.074-0.063,0.111l2.622,1.457c0.113-0.203,0.238-0.404,0.371-0.596
		L15.153,10.432L15.153,10.432z M13.429,15.069c-0.009,0.087-0.017,0.174-0.024,0.261c0,0,0,0.001,0,0.001
		c0,0.003,0,0.005-0.001,0.007c0,0,0,0.001,0,0.001c0,0.003,0,0.005-0.001,0.008l0,0c0,0.005-0.001,0.011-0.001,0.016v0
		c0,0.003,0,0.005-0.001,0.008c0,0.001,0,0.002,0,0.003c0,0.002,0,0.003,0,0.005c0,0.002,0,0.003,0,0.005l0,0.003
		c0,0.002,0,0.004,0,0.006l0,0.001c0,0.002,0,0.005,0,0.007l0,0.001c0,0.002,0,0.004,0,0.007c0,0,0,0.001,0,0.001
		c0,0.002,0,0.005,0,0.007c0,0,0,0.001,0,0.001c0,0.002,0,0.005,0,0.007c0,0,0,0.001,0,0.001c0,0.003,0,0.005,0,0.007
		c0,0,0,0.001,0,0.001c0,0.003,0,0.005,0,0.007c0,0,0,0,0,0c0,0.003,0,0.005,0,0.008l0,0c-0.013,0.205-0.021,0.411-0.022,0.619
		l3,0.012c0.001-0.234,0.014-0.469,0.038-0.699L13.429,15.069L13.429,15.069z M16.955,19.524l-2.96,0.486
		c0.014,0.082,0.026,0.165,0.038,0.249v0c0,0.002,0.001,0.005,0.001,0.007l0,0c0.001,0.005,0.001,0.01,0.002,0.015
		c0,0,0,0.001,0,0.001c0,0.002,0,0.004,0.001,0.006c0,0.001,0,0.001,0,0.002c0,0.002,0.001,0.005,0.001,0.007l0,0.001
		c0,0.002,0.001,0.004,0.001,0.006c0,0,0,0.002,0,0.002c0,0.002,0,0.003,0.001,0.004c0,0.001,0,0.002,0,0.003
		c0,0.002,0,0.003,0.001,0.005c0,0.001,0,0.003,0.001,0.004c0,0.001,0,0.002,0,0.004c0,0.001,0,0.002,0,0.004
		c0,0.001,0,0.002,0,0.003c0,0.001,0,0.003,0.001,0.004c0,0,0,0.001,0,0.002c0,0.003,0.001,0.006,0.001,0.008
		c0,0.001,0,0.001,0,0.002c0,0.002,0,0.003,0.001,0.005c0,0,0,0.001,0,0.002c0,0.002,0,0.003,0.001,0.005v0
		c0,0.004,0.001,0.007,0.001,0.011l0,0.001c0,0.002,0,0.003,0.001,0.005c0,0,0,0.001,0,0.001c0.001,0.007,0.002,0.015,0.003,0.022
		l0,0c0.01,0.084,0.02,0.17,0.027,0.256l0,0c0.001,0.008,0.001,0.015,0.002,0.023c0,0,0,0.001,0,0.001
		c0,0.006,0.001,0.011,0.001,0.017l0,0c0,0.002,0,0.003,0,0.005c0,0,0,0.001,0,0.002c0,0.002,0,0.003,0,0.005c0,0,0,0.001,0,0.001
		c0,0.003,0.001,0.007,0.001,0.01c0,0.001,0,0.001,0,0.002c0,0.001,0,0.003,0,0.004c0,0.001,0,0.002,0,0.003
		c0,0.001,0,0.003,0,0.004c0,0.001,0,0.002,0,0.003c0,0.002,0,0.004,0,0.006c0,0.001,0,0.003,0,0.004c0,0.001,0,0.002,0,0.003
		c0,0.001,0,0.003,0,0.004c0,0.001,0,0.002,0,0.003c0,0.002,0,0.003,0,0.005c0,0.001,0,0.002,0,0.003c0,0.002,0,0.004,0,0.006
		c0,0.001,0,0.002,0,0.002c0,0.003,0,0.004,0,0.006c0,0,0,0.001,0,0.002c0,0.005,0.001,0.01,0.001,0.015c0,0,0,0.001,0,0.001
		c0,0.002,0,0.004,0,0.006l0,0.001c0,0.005,0.001,0.01,0.001,0.015l0,0c0,0.003,0,0.005,0.001,0.008l0,0
		c0.004,0.059,0.007,0.118,0.01,0.177l2.997-0.137C17.079,20.432,17.032,19.992,16.955,19.524L16.955,19.524z M13.15,24.838
		c-0.138,0.301-0.276,0.603-0.408,0.913l2.762,1.171c0.12-0.283,0.247-0.559,0.371-0.831l0.002-0.004L13.15,24.838L13.15,24.838z
		 M15.021,29.369l-2.988,0.272c0.018,0.195,0.043,0.388,0.074,0.579l0,0c0.001,0.008,0.003,0.016,0.004,0.024l0,0.001
		c0,0.002,0.001,0.004,0.001,0.005c0,0,0,0.001,0,0.001c0,0.002,0.001,0.004,0.001,0.005c0,0,0,0,0,0
		c0.001,0.006,0.002,0.012,0.003,0.018c0,0,0,0.001,0,0.001c0,0.002,0.001,0.004,0.001,0.005c0,0.001,0,0.001,0,0.001
		c0,0.002,0.001,0.004,0.001,0.005c0,0.001,0,0.001,0,0.002c0,0.002,0.001,0.003,0.001,0.005v0c0.001,0.004,0.001,0.007,0.002,0.011
		c0,0,0,0.001,0,0.001c0,0.002,0.001,0.004,0.001,0.005c0,0.001,0,0.001,0,0.001c0,0.002,0.001,0.004,0.001,0.005
		c0,0.001,0,0.001,0,0.002c0,0.002,0.001,0.003,0.001,0.005c0,0,0,0.001,0,0.001c0.001,0.005,0.002,0.01,0.003,0.016
		c0,0.001,0,0.002,0,0.002c0,0.002,0.001,0.004,0.001,0.005c0,0,0,0.001,0,0.002c0,0.002,0.001,0.003,0.001,0.005l0,0.001
		c0.001,0.006,0.002,0.011,0.003,0.017l0,0.001c0,0.002,0.001,0.003,0.001,0.005c0,0,0,0.001,0,0.002
		c0,0.002,0.001,0.003,0.001,0.005l0,0.002c0,0.002,0.001,0.003,0.001,0.005l0,0c0.001,0.004,0.002,0.008,0.002,0.012v0
		c0,0.002,0.001,0.004,0.001,0.005c0,0,0,0.001,0,0.001c0,0.002,0.001,0.004,0.001,0.006c0,0,0,0.001,0,0.001
		c0.002,0.008,0.003,0.016,0.005,0.024l0,0.001c0,0.002,0.001,0.004,0.001,0.006l0,0.001c0.012,0.06,0.024,0.119,0.037,0.178
		l2.93-0.646C15.071,29.782,15.039,29.575,15.021,29.369L15.021,29.369z M16.235,32.191l-2.262,1.97
		c0.001,0.001,0.002,0.002,0.002,0.003c0,0,0.001,0.001,0.001,0.001c0.001,0.001,0.002,0.002,0.003,0.003
		c0.001,0.001,0.001,0.001,0.002,0.002c0.001,0.001,0.002,0.002,0.003,0.003c0.001,0.002,0.003,0.003,0.004,0.005
		c0.001,0.001,0.001,0.001,0.002,0.002c0.001,0.001,0.002,0.002,0.003,0.003c0.001,0.001,0.001,0.001,0.001,0.001
		c0.002,0.002,0.003,0.003,0.004,0.005c0,0,0.001,0.001,0.001,0.001c0.005,0.006,0.01,0.011,0.015,0.017l0,0
		c0.193,0.218,0.398,0.426,0.613,0.623c0,0,0,0,0,0c0.002,0.002,0.004,0.003,0.005,0.005l0,0c0.004,0.003,0.008,0.007,0.011,0.01
		l0.001,0.001c0.002,0.001,0.003,0.003,0.005,0.004c0,0,0.001,0.001,0.001,0.001c0.001,0.001,0.003,0.003,0.004,0.004
		c0,0,0.001,0.001,0.001,0.001c0.002,0.002,0.004,0.003,0.005,0.005c0,0,0,0,0.001,0.001c0.002,0.001,0.003,0.003,0.005,0.004
		c0.001,0.001,0.001,0.001,0.002,0.002c0.001,0.001,0.002,0.002,0.003,0.003c0,0,0.001,0.001,0.001,0.001l2.006-2.23
		C16.523,32.501,16.373,32.349,16.235,32.191L16.235,32.191z M18.909,33.833l-0.741,2.907c0.055,0.014,0.11,0.027,0.165,0.04
		c0,0,0.001,0,0.001,0c0.002,0,0.004,0.001,0.006,0.001l0.001,0c0.002,0,0.004,0.001,0.006,0.001c0.001,0,0.001,0,0.001,0
		c0.005,0.001,0.009,0.002,0.014,0.003c0.001,0,0.001,0,0.002,0.001c0.002,0,0.003,0.001,0.005,0.001c0.001,0,0.002,0,0.003,0.001
		c0.001,0,0.003,0.001,0.004,0.001c0.001,0,0.002,0,0.003,0.001c0.001,0,0.003,0.001,0.004,0.001c0.001,0,0.002,0,0.003,0.001
		c0.002,0,0.004,0.001,0.006,0.001c0.002,0,0.003,0.001,0.005,0.001c0.001,0,0.002,0,0.003,0.001c0.001,0,0.003,0.001,0.004,0.001
		c0.001,0,0.001,0,0.001,0c0.002,0.001,0.004,0.001,0.005,0.001c0.001,0,0.001,0,0.002,0c0.002,0,0.003,0.001,0.005,0.001l0.001,0
		c0.006,0.001,0.011,0.002,0.017,0.004l0.001,0c0.002,0,0.003,0.001,0.005,0.001c0,0,0.001,0,0.001,0
		c0.002,0,0.004,0.001,0.005,0.001l0.001,0c0.008,0.002,0.016,0.004,0.025,0.005l0,0c0.002,0,0.004,0.001,0.006,0.001c0,0,0,0,0,0
		c0.082,0.017,0.163,0.034,0.245,0.049l0,0c0.002,0,0.004,0.001,0.006,0.001l0,0c0.008,0.001,0.017,0.003,0.025,0.004c0,0,0,0,0,0
		c0.002,0,0.004,0.001,0.006,0.001l0.001,0c0.002,0,0.004,0.001,0.005,0.001c0,0,0,0,0,0c0.006,0.001,0.012,0.002,0.017,0.003
		c0.001,0,0.001,0,0.002,0c0.001,0,0.003,0.001,0.004,0.001c0.001,0,0.002,0,0.002,0c0.002,0,0.003,0,0.004,0.001
		c0.001,0,0.002,0,0.002,0c0.002,0,0.003,0.001,0.005,0.001c0.001,0,0.001,0,0.001,0c0.004,0.001,0.007,0.001,0.009,0.002
		c0.001,0,0.002,0,0.002,0c0.002,0,0.003,0.001,0.005,0.001c0.001,0,0.002,0,0.003,0.001c0.001,0,0.002,0,0.004,0.001
		c0.001,0,0.002,0,0.003,0.001c0.001,0,0.002,0,0.004,0.001c0.001,0,0.003,0,0.004,0.001c0.001,0,0.002,0,0.003,0
		c0.002,0,0.005,0.001,0.007,0.001c0,0,0,0,0.001,0c0.002,0,0.004,0.001,0.007,0.001c0.001,0,0.001,0,0.001,0
		c0.003,0,0.004,0.001,0.006,0.001c0,0,0.002,0,0.002,0c0.002,0,0.004,0.001,0.005,0.001c0.001,0,0.001,0,0.002,0
		c0.002,0,0.005,0.001,0.007,0.001l0,0c0.005,0.001,0.01,0.002,0.015,0.002c0,0,0.001,0,0.001,0c0.003,0,0.005,0.001,0.007,0.001
		c0,0,0.001,0,0.001,0c0.08,0.013,0.16,0.025,0.241,0.035l0.389-2.975C19.326,33.926,19.114,33.886,18.909,33.833L18.909,33.833z
		 M23.005,33.507c-0.223,0.084-0.452,0.158-0.681,0.221l0.789,2.894c0.21-0.057,0.419-0.121,0.625-0.191l0,0
		c0.007-0.002,0.014-0.005,0.021-0.007c0,0,0.001,0,0.001-0.001c0.004-0.002,0.009-0.003,0.014-0.005c0,0,0.001,0,0.002-0.001
		c0.001,0,0.002-0.001,0.004-0.001c0,0,0.002-0.001,0.003-0.001c0.002-0.001,0.003-0.001,0.005-0.002
		c0.001,0,0.003-0.001,0.004-0.001c0.001,0,0.002-0.001,0.003-0.001c0.001,0,0.003-0.001,0.004-0.001
		c0.001,0,0.002-0.001,0.003-0.001c0.002-0.001,0.004-0.001,0.005-0.002c0,0,0.001,0,0.001,0c0.003-0.001,0.005-0.002,0.007-0.002
		c0,0,0.002-0.001,0.002-0.001c0.002-0.001,0.003-0.001,0.005-0.002c0,0,0.001,0,0.001,0c0.003-0.001,0.005-0.002,0.007-0.002
		c0,0,0.001,0,0.001,0c0.002-0.001,0.004-0.001,0.006-0.002l0.002-0.001c0.005-0.002,0.009-0.003,0.014-0.005l0,0
		c0.002-0.001,0.005-0.002,0.007-0.002c0,0,0,0,0,0c0.069-0.024,0.137-0.049,0.205-0.075L23.005,33.507L23.005,33.507z
		 M26.084,31.465c-0.184,0.184-0.374,0.361-0.566,0.526l1.957,2.274c0.009-0.008,0.017-0.015,0.026-0.023l0,0
		c0.013-0.012,0.027-0.023,0.04-0.035l0,0c0.012-0.01,0.023-0.02,0.035-0.031l0.001-0.001c0.006-0.005,0.011-0.01,0.017-0.015
		c0,0,0,0,0,0c0.006-0.005,0.012-0.01,0.017-0.015c0,0,0,0,0,0c0.006-0.005,0.011-0.01,0.017-0.015c0,0,0.001,0,0.001,0
		c0.002-0.002,0.003-0.003,0.004-0.004l0,0c0.004-0.004,0.008-0.007,0.012-0.011l0.001-0.001c0.001-0.001,0.002-0.002,0.004-0.003
		c0,0,0,0,0.001-0.001c0.004-0.004,0.008-0.008,0.013-0.011l0,0c0.001-0.001,0.003-0.003,0.004-0.004c0,0,0,0,0,0
		c0.006-0.005,0.011-0.01,0.017-0.015c0,0,0,0,0.001-0.001c0.001-0.001,0.003-0.002,0.004-0.004c0,0,0,0,0.001-0.001
		c0.004-0.004,0.008-0.007,0.012-0.011l0.001-0.001c0.001-0.001,0.002-0.002,0.004-0.004c0,0,0.001-0.001,0.001-0.001
		c0.003-0.002,0.006-0.005,0.008-0.007l0.001-0.001c0.001-0.001,0.002-0.002,0.003-0.003c0.001-0.001,0.001-0.001,0.002-0.002
		c0.001-0.001,0.002-0.002,0.003-0.003l0.002-0.002c0.004-0.003,0.007-0.006,0.011-0.01c0.001-0.001,0.001-0.001,0.002-0.002
		c0.001-0.001,0.002-0.002,0.003-0.003c0.001-0.001,0.001-0.001,0.002-0.002c0.001-0.001,0.002-0.002,0.003-0.003
		c0.001-0.001,0.001-0.001,0.002-0.002c0.001-0.001,0.004-0.004,0.005-0.005c0.001-0.001,0.001-0.001,0.002-0.002
		c0.001-0.001,0.002-0.001,0.003-0.002c0.001-0.001,0.002-0.002,0.003-0.003c0.001-0.001,0.001-0.001,0.002-0.002
		c0.002-0.001,0.003-0.003,0.005-0.004l0.001-0.001c0.001-0.001,0.003-0.003,0.004-0.004c0.001-0.001,0.001-0.001,0.002-0.002
		c0.001-0.001,0.002-0.002,0.003-0.003c0.001-0.001,0.001-0.001,0.001-0.001c0.002-0.002,0.004-0.003,0.005-0.005c0,0,0,0,0,0
		c0.002-0.002,0.004-0.004,0.006-0.005l0.002-0.001c0.001-0.001,0.002-0.002,0.004-0.003c0.001-0.001,0.001-0.001,0.002-0.002
		c0.001-0.001,0.003-0.003,0.004-0.004c0,0,0,0,0.001-0.001c0.002-0.002,0.004-0.003,0.005-0.005c0.001-0.001,0.001,0,0.001-0.001
		c0.001-0.001,0.003-0.003,0.004-0.004c0.001-0.001,0.001-0.001,0.001-0.001c0.001-0.001,0.003-0.003,0.004-0.004l0.001-0.001
		c0.002-0.002,0.004-0.003,0.005-0.005c0,0,0,0,0,0c0.002-0.002,0.004-0.003,0.005-0.005c0,0,0.001-0.001,0.001-0.001
		c0.002-0.002,0.003-0.003,0.005-0.005l0,0c0.004-0.003,0.008-0.007,0.011-0.01c0,0,0,0,0,0c0.12-0.112,0.239-0.226,0.356-0.344
		L26.084,31.465L26.084,31.465z M28.449,28.153c-0.131,0.252-0.267,0.498-0.408,0.738l2.586,1.521
		c0.034-0.058,0.068-0.115,0.101-0.174l0,0c0.004-0.007,0.008-0.013,0.011-0.02c0.001-0.001,0.001-0.001,0.001-0.002
		c0.001-0.001,0.002-0.003,0.002-0.004c0.001-0.001,0.001-0.002,0.002-0.003c0.001-0.001,0.001-0.002,0.002-0.003
		c0.001-0.001,0.002-0.003,0.002-0.004c0-0.001,0.001-0.001,0.001-0.001c0.001-0.002,0.002-0.004,0.003-0.005c0,0,0,0,0,0
		c0.103-0.18,0.203-0.364,0.302-0.55c0.001-0.001,0.001-0.002,0.002-0.003c0.001-0.001,0.001-0.002,0.001-0.003
		c0.001-0.001,0.001-0.003,0.002-0.004l0.001-0.002c0.001-0.002,0.002-0.003,0.002-0.005l0.001-0.002
		c0.001-0.002,0.002-0.004,0.003-0.006l0,0c0.015-0.028,0.029-0.056,0.044-0.084L28.449,28.153L28.449,28.153z M30.007,24.091
		c-0.078,0.288-0.161,0.572-0.249,0.851l2.863,0.896c0.001-0.002,0.002-0.005,0.002-0.008l0,0c0.098-0.312,0.19-0.629,0.278-0.952
		L30.007,24.091L30.007,24.091z M30.82,19.655c-0.032,0.305-0.068,0.607-0.108,0.905l2.973,0.399c0.018-0.133,0.035-0.266,0.051-0.4
		l0-0.001c0.001-0.005,0.001-0.009,0.002-0.014c0-0.001,0-0.001,0-0.002c0.001-0.004,0.001-0.009,0.002-0.013
		c0-0.001,0-0.002,0-0.002c0.001-0.005,0.001-0.009,0.002-0.013c0-0.001,0-0.003,0-0.004c0-0.003,0.001-0.007,0.001-0.01
		c0-0.002,0-0.004,0.001-0.006c0-0.003,0.001-0.006,0.001-0.009c0-0.003,0.001-0.005,0.001-0.007c0-0.002,0.001-0.005,0.001-0.007
		c0-0.003,0.001-0.006,0.001-0.009c0-0.002,0-0.004,0.001-0.006c0-0.003,0.001-0.008,0.001-0.011c0-0.001,0-0.003,0-0.004
		c0.001-0.005,0.001-0.009,0.002-0.014c0,0,0-0.001,0-0.002c0.008-0.066,0.015-0.13,0.023-0.196c0-0.001,0-0.002,0-0.003
		c0-0.004,0.001-0.009,0.001-0.013c0-0.001,0-0.002,0-0.004c0-0.004,0.001-0.007,0.001-0.011c0-0.002,0-0.004,0.001-0.005
		c0-0.003,0.001-0.006,0.001-0.01c0-0.002,0-0.005,0.001-0.007c0-0.002,0-0.004,0.001-0.006c0-0.003,0.001-0.007,0.001-0.01
		c0-0.002,0-0.003,0-0.005c0-0.004,0.001-0.008,0.001-0.012c0-0.001,0-0.002,0-0.004c0-0.004,0.001-0.008,0.001-0.013
		c0-0.001,0-0.002,0-0.002c0.001-0.005,0.001-0.01,0.002-0.015c0-0.001,0,0,0-0.001c0.005-0.047,0.01-0.094,0.015-0.141
		L30.82,19.655L30.82,19.655z M33.936,14.975l-2.981,0.339c0.026,0.23,0.041,0.465,0.044,0.699l3-0.04
		c0-0.031-0.001-0.061-0.002-0.092c0,0,0,0,0,0c0-0.003,0-0.005,0-0.008c0,0,0,0,0,0c0-0.003,0-0.005,0-0.007l0-0.001
		c0-0.002,0-0.004,0-0.007l0-0.001c0-0.002,0-0.004,0-0.006c0,0,0-0.001,0-0.002c0-0.002,0-0.004,0-0.006c0-0.001,0-0.002,0-0.002
		c0-0.002,0-0.003,0-0.005c0-0.001,0-0.002,0-0.003c0-0.001,0-0.003,0-0.004c0-0.001,0-0.003,0-0.004c0-0.001,0-0.001,0-0.001
		c-0.004-0.129-0.01-0.256-0.018-0.383l0-0.001c0-0.002,0-0.005,0-0.007v0c0-0.002,0-0.005,0-0.007l0-0.001c0-0.002,0-0.005,0-0.007
		c0,0,0-0.001,0-0.001c0-0.003,0-0.005,0-0.007c0-0.001,0-0.001,0-0.001c0-0.003,0-0.005-0.001-0.007l0-0.001
		c0-0.002,0-0.004,0-0.007l0-0.002c0-0.002,0-0.004,0-0.006c0-0.001,0-0.001,0-0.001c0-0.003,0-0.005,0-0.006
		c0-0.001,0-0.002,0-0.003c0-0.002,0-0.003,0-0.005c0-0.001,0-0.002,0-0.003c0-0.002,0-0.003,0-0.005c0-0.001,0-0.002,0-0.003
		c0-0.001,0-0.003,0-0.004c0-0.001,0-0.003,0-0.004c0-0.001,0-0.002,0-0.004c0-0.002,0-0.003,0-0.005c0-0.001,0-0.002,0-0.002
		c0-0.003,0-0.005-0.001-0.007l0,0C33.961,15.212,33.949,15.093,33.936,14.975L33.936,14.975z M32.167,10.355l-2.449,1.733
		c0.135,0.191,0.262,0.39,0.377,0.593l2.609-1.482C32.539,10.908,32.36,10.626,32.167,10.355L32.167,10.355z M28.416,7.123
		L27.06,9.799c0.21,0.107,0.418,0.225,0.617,0.351l1.608-2.533C29.005,7.439,28.715,7.274,28.416,7.123L28.416,7.123z M23.687,6v3
		c0.217,0,0.435,0.009,0.65,0.028l0.255-2.989c-0.176-0.015-0.352-0.026-0.531-0.032l0,0c-0.003,0-0.005,0-0.008,0l0,0
		c-0.011,0-0.022-0.001-0.033-0.001l-0.001,0c-0.003,0-0.005,0-0.007,0l-0.001,0c-0.002,0-0.005,0-0.007,0l-0.001,0
		c-0.011,0-0.022-0.001-0.033-0.001l-0.001,0c-0.002,0-0.005,0-0.007,0c0,0-0.001,0-0.001,0c-0.002,0-0.004,0-0.006,0
		c-0.001,0-0.001,0-0.002,0c-0.002,0-0.005,0-0.007,0l-0.001,0c-0.006,0-0.011,0-0.016,0c0,0,0,0,0,0c-0.002,0-0.005,0-0.007,0
		c0,0-0.001,0-0.002,0c-0.002,0-0.004,0-0.006,0c-0.001,0-0.001,0-0.002,0c-0.002,0-0.004,0-0.006,0c-0.001,0-0.001,0-0.002,0
		c-0.002,0-0.004,0-0.006,0c0,0-0.001,0-0.001,0c-0.006,0-0.01,0-0.016,0l-0.001,0c-0.002,0-0.004,0-0.007,0c0,0-0.001,0-0.002,0
		c-0.002,0-0.004,0-0.006,0c0,0-0.001,0-0.002,0c-0.002,0-0.004,0-0.006,0c0,0-0.002,0-0.002,0c-0.002,0-0.004,0-0.006,0
		c-0.001,0-0.001,0-0.002,0c-0.006,0-0.01,0-0.016,0l-0.001,0c-0.002,0-0.004,0-0.006,0c-0.001,0-0.002,0-0.003,0
		c-0.002,0-0.004,0-0.005,0c-0.001,0-0.002,0-0.003,0c-0.002,0-0.003,0-0.006,0c-0.001,0-0.002,0-0.002,0c-0.002,0-0.004,0-0.006,0
		c0,0-0.001,0-0.002,0c-0.006,0-0.01,0-0.016,0c-0.001,0-0.001,0-0.001,0c-0.003,0-0.005,0-0.007,0c-0.001,0-0.002,0-0.002,0
		c-0.002,0-0.003,0-0.005,0c-0.001,0-0.002,0-0.003,0c-0.002,0-0.003,0-0.005,0c-0.001,0-0.002,0-0.003,0c-0.002,0-0.004,0-0.006,0
		c0,0-0.001,0-0.002,0c-0.003,0-0.005,0-0.008,0l0,0c-0.003,0-0.005,0-0.008,0c-0.001,0-0.001,0-0.001,0c-0.003,0-0.004,0-0.006,0
		c-0.001,0-0.002,0-0.003,0c-0.002,0-0.003,0-0.005,0c-0.001,0-0.002,0-0.003,0c-0.001,0-0.003,0-0.005,0c-0.001,0-0.002,0-0.003,0
		c-0.002,0-0.003,0-0.005,0c-0.001,0-0.002,0-0.003,0C23.693,6,23.69,6,23.687,6L23.687,6z"/>
	<path style="fill:#5E9C76;" d="M23.687,7C28.822,7,33,11.086,33,16.109C33,27.82,27.757,36,20.25,36C16.252,36,13,32.821,13,28.913
		c0-1.347,0.538-2.52,1.057-3.655c0.433-0.945,0.88-1.922,0.999-2.972c0.167-1.482-0.085-2.599-0.328-3.678
		c-0.182-0.807-0.353-1.57-0.353-2.499C14.375,11.086,18.553,7,23.687,7 M23.687,6c-5.695,0-10.312,4.526-10.312,10.109
		c0,2.328,0.955,3.689,0.687,6.065C13.829,24.247,12,26.167,12,28.913C12,33.379,15.694,37,20.25,37C28.447,37,34,28.239,34,16.109
		C34,10.526,29.383,6,23.687,6L23.687,6z"/>
</g>
<circle style="fill:#5E9C76;" cx="23.5" cy="16.5" r="3.5"/>
<g>
	<circle style="fill:#DBF2FF;" cx="35.5" cy="4.5" r="3"/>
	<g>
		<path style="fill:#66798F;" d="M35.5,2C36.878,2,38,3.122,38,4.5S36.878,7,35.5,7S33,5.878,33,4.5S34.122,2,35.5,2 M35.5,1
			C33.567,1,32,2.567,32,4.5S33.567,8,35.5,8S39,6.433,39,4.5S37.433,1,35.5,1L35.5,1z"/>
	</g>
</g>
<g>
	<circle style="fill:#DBF2FF;" cx="4" cy="36" r="1.5"/>
	<g>
		<path style="fill:#66798F;" d="M4,35c0.551,0,1,0.449,1,1s-0.449,1-1,1s-1-0.449-1-1S3.449,35,4,35 M4,34c-1.105,0-2,0.895-2,2
			s0.895,2,2,2s2-0.895,2-2S5.105,34,4,34L4,34z"/>
	</g>
</g>
<circle style="fill:#5E9C76;" cx="20" cy="29" r="2"/>
<g>
	<path style="fill:#FFC49C;" d="M4.5,11.5c-1.103,0-2-0.897-2-2c0-0.125,0.023-3.07,2.027-5.153C5.857,3.129,7.538,2.5,9.5,2.5
		c1.141,0,2,0.86,2,2s-0.859,2-2,2c-1.879,0-3,1.122-3,3C6.5,10.603,5.603,11.5,4.5,11.5z"/>
	<g>
		<path style="fill:#A16A4A;" d="M9.5,3C10.369,3,11,3.631,11,4.5S10.369,6,9.5,6C7.341,6,6,7.341,6,9.5C6,10.327,5.327,11,4.5,11
			S3,10.327,3,9.5c0-0.116,0.021-2.845,1.866-4.784C6.136,3.561,7.653,3,9.5,3 M9.5,2C6.833,2,5.167,3.083,4.167,4
			C2.083,6.167,2,9.167,2,9.5C2,10.833,3.083,12,4.5,12C5.833,12,7,10.917,7,9.5C7,8.333,7.5,7,9.5,7C10.917,7,12,5.917,12,4.5
			S10.917,2,9.5,2L9.5,2z"/>
	</g>
</g>
<g>
	<path style="fill:#FFEEA3;" d="M6.988,26.5c-0.128,0-0.257-0.018-0.382-0.052c-2.551-0.515-4.261-2.34-4.959-3.749
		C1.5,22.47,1.5,22.165,1.5,21.919c0.062-0.407,0.334-1.003,0.893-1.245c0.24-0.12,0.468-0.175,0.702-0.175
		c0.568,0,1.082,0.322,1.34,0.84l-0.007-0.025c0.222,0.576,1.227,1.814,2.827,2.193c0.428,0.073,0.75,0.271,0.967,0.578
		c0.239,0.341,0.33,0.797,0.248,1.252C8.288,26.005,7.675,26.5,6.988,26.5L6.988,26.5z"/>
	<g>
		<path style="fill:#BA9B48;" d="M3.095,21c0.377,0,0.719,0.216,0.891,0.562l0.004-0.002c0.346,0.819,1.5,2.043,3.15,2.434
			l0.032,0.008l0.033,0.005c0.264,0.044,0.469,0.167,0.608,0.366c0.157,0.223,0.219,0.524,0.173,0.833
			C7.841,25.676,7.436,26,6.988,26c-0.083,0-0.167-0.011-0.249-0.034l-0.033-0.009L6.671,25.95c-3.08-0.62-4.433-3.183-4.577-3.473
			l-0.023-0.048l-0.034-0.052C2.007,22.313,2.001,22.133,2,21.998c0.061-0.331,0.244-0.714,0.59-0.864l0.027-0.012l0.026-0.013
			C2.788,21.037,2.939,21,3.095,21 M3.095,20c-0.302,0-0.61,0.069-0.9,0.216C1.498,20.516,1.1,21.218,1,21.919
			c0,0.301,0,0.702,0.199,1.002c0.597,1.203,2.289,3.407,5.275,4.009C6.646,26.977,6.819,27,6.988,27
			c0.906,0,1.723-0.644,1.974-1.573c0.199-1.102-0.398-2.205-1.592-2.405c-1.692-0.401-2.488-1.804-2.488-1.904
			C4.529,20.408,3.828,20,3.095,20L3.095,20z"/>
	</g>
</g>
<g>
	<path style="fill:#DCD5F2;" d="M34.363,38.5c-0.419,0-0.769-0.109-1.101-0.343c-0.806-0.589-1.002-1.575-0.46-2.341
		c0.323-0.411,1.391-2.224,2.053-5.847c0.164-0.849,0.911-1.469,1.776-1.469c0.101,0,0.203,0.008,0.307,0.026
		c1.007,0.172,1.646,1.023,1.553,2.069c-0.862,4.537-2.367,6.902-2.627,7.178C35.463,38.241,34.914,38.5,34.363,38.5z"/>
	<g>
		<path style="fill:#8B75A1;" d="M36.631,29c0.073,0,0.148,0.006,0.223,0.019c0.737,0.126,1.191,0.721,1.142,1.488
			c-0.893,4.67-2.374,6.758-2.497,6.923l-0.011,0.011l-0.036,0.042C35.18,37.802,34.763,38,34.363,38
			c-0.314,0-0.565-0.078-0.798-0.242c-0.585-0.427-0.734-1.096-0.366-1.634c0.496-0.624,1.531-2.686,2.146-6.054
			C35.463,29.46,36.016,29,36.631,29 M36.631,28c-1.111,0-2.061,0.809-2.269,1.879c-0.694,3.8-1.85,5.538-1.966,5.646
			c-0.694,0.977-0.463,2.28,0.578,3.04C33.438,38.891,33.9,39,34.363,39c0.694,0,1.388-0.326,1.851-0.869
			c0.231-0.217,1.85-2.606,2.776-7.492c0.116-1.303-0.694-2.389-1.966-2.606C36.891,28.011,36.76,28,36.631,28L36.631,28z"/>
	</g>
</g>
</svg>
