<?xml version="1.0" encoding="iso-8859-1"?>
<!-- Generator: Adobe Illustrator 21.0.2, SVG Export Plug-In . SVG Version: 6.00 Build 0)  -->
<svg xmlns="http://www.w3.org/2000/svg" xmlns:xlink="http://www.w3.org/1999/xlink" version="1.1" id="Layer_1" x="0px" y="0px" viewBox="0 0 40 40" style="enable-background:new 0 0 40 40;" xml:space="preserve">
<g>
	<path style="fill:#F78F8F;" d="M28.705,8.367c0.804-0.919,2.551-2.838,4.835-4.904c0.267-0.236,0.456-0.396,0.663-0.569   l0.417-0.354C34.841,2.513,35.05,2.5,35.248,2.5c2.144,0,2.917,1.522,3.196,2.611c-0.344,0.282-0.687,0.57-1.02,0.859   c-2.203,1.871-4.159,3.898-5.312,5.229L28.705,8.367z"/>
	<g>
		<path style="fill:#C74343;" d="M35.247,3L35.247,3c1.581,0,2.302,0.955,2.625,1.935c-0.261,0.217-0.519,0.436-0.769,0.652    c-2.033,1.727-3.857,3.584-5.045,4.917l-2.637-2.192c0.89-0.994,2.471-2.684,4.446-4.472c0.262-0.232,0.447-0.387,0.647-0.555    c0.098-0.082,0.2-0.168,0.315-0.266C34.973,3.007,35.113,3,35.247,3 M35.247,2c-0.261,0-0.54,0.02-0.838,0.062    c-0.502,0.434-0.729,0.609-1.204,1.03c-2.986,2.701-5.049,5.144-5.211,5.334l4.18,3.474c0.95-1.14,3.054-3.406,5.578-5.551    C38.159,5.996,38.579,5.644,39,5.304C38.741,3.984,37.858,2,35.247,2L35.247,2z"/>
	</g>
</g>
<g>
	<path style="fill:#FFADAD;" d="M31.074,20.5l0.002-0.461c0.026-3.514,0.055-7.497-3.098-11.22l-0.414-0.488l-0.374,0.52   c-1.492,2.079-1.979,4.307-2.125,5.253l-4.19,0.321c0.042-1.239,0.417-4.579,3.033-7.962l0.323-0.418l-0.435-0.3   c-0.583-0.401-0.608-0.416-1.197-0.767l-0.107-0.064c-0.004-1.11,0.353-3.131,2.951-3.401c0.222,0.137,0.435,0.269,0.639,0.419   c9.447,5.921,9.432,12.887,9.42,18.483l0,0.085H31.074z"/>
	<path style="fill:#C74343;" d="M25.329,2.031c0.162,0.101,0.316,0.2,0.456,0.304l0.03,0.022l0.032,0.02   C34.797,7.984,35.007,14.6,35.002,20h-3.425c0.026-3.591,0.043-7.656-3.217-11.504l-0.828-0.977L26.784,8.56   c-1.359,1.893-1.919,3.925-2.14,5.075l-3.235,0.248c0.132-1.449,0.685-4.257,2.894-7.114l0.646-0.836l-0.87-0.599   c-0.544-0.375-0.631-0.431-1.082-0.7C23.054,3.601,23.5,2.294,25.329,2.031 M25.563,1C22.089,1.258,21.946,4.244,22,5.207   c0.068,0.041,0.143,0.081,0.211,0.122c0.706,0.421,0.69,0.407,1.301,0.828c-3.379,4.37-3.149,8.618-3.135,8.808l5.13-0.394   c0-0.027,0.258-2.877,2.09-5.429C30.908,13.051,30.571,17.2,30.571,21H36c0-5.727,0.364-13.214-9.622-19.471   C26.12,1.339,25.848,1.176,25.563,1L25.563,1z"/>
</g>
<g>
	<path style="fill:#8BB7F0;" d="M9.354,17.348C8.7,15.951,6.502,11.577,2.371,6.249C2.29,6.138,2.178,5.978,2.059,5.808   C1.88,5.551,1.685,5.271,1.517,5.049c0.224-1.859,1.641-2.527,2.922-2.527c0.242,0,0.487,0.022,0.731,0.069   C5.174,2.597,5.292,2.77,5.292,2.77c0.485,0.608,0.929,1.188,1.36,1.768l0.281,0.378l0.394-0.259   c1.097-0.721,2.573-1.82,2.907-2.071C10.419,2.528,10.609,2.5,10.799,2.5c0.675,0,1.363,0.374,1.84,1   c0.523,0.687,0.721,1.574,0.542,2.403c-0.353,0.269-0.795,0.583-1.261,0.916c-0.722,0.515-1.469,1.047-2.074,1.536L9.499,8.637   l0.241,0.377c2.016,3.155,3.224,5.591,3.69,6.584L9.354,17.348z"/>
	<path style="fill:#4E7AB5;" d="M10.799,3L10.799,3c0.52,0,1.059,0.3,1.442,0.803c0.404,0.531,0.574,1.179,0.483,1.818   c-0.319,0.238-0.703,0.512-1.103,0.797c-0.725,0.517-1.475,1.052-2.09,1.549L8.837,8.529l0.481,0.754   c1.744,2.73,2.87,4.897,3.436,6.061l-3.153,1.354c-0.849-1.751-2.997-5.804-6.818-10.732c-0.088-0.12-0.197-0.277-0.314-0.444   c-0.137-0.197-0.286-0.41-0.427-0.604c0.317-1.753,1.895-1.896,2.396-1.896c0.146,0,0.293,0.01,0.441,0.029   c0.01,0.014,0.022,0.03,0.034,0.046c0.455,0.572,0.893,1.141,1.338,1.739l0.563,0.757l0.788-0.519   c1.039-0.684,2.411-1.7,2.856-2.032C10.571,3.014,10.685,3,10.799,3 M10.799,2C10.536,2,10.267,2.043,10,2.136   c0,0-1.729,1.302-2.947,2.103C6.619,3.655,6.171,3.071,5.696,2.474C5.587,2.325,5.579,2.29,5.457,2.141   c-0.339-0.08-0.682-0.12-1.019-0.12C2.725,2.021,1.159,3.055,1,5.199c0.285,0.353,0.718,1.004,0.975,1.357   C6.943,12.962,9.075,17.932,9.102,18l4.994-2.144c-0.095-0.217-1.344-3.054-3.936-7.111c1.045-0.845,2.596-1.874,3.464-2.552   C14.207,4.08,12.625,2,10.799,2L10.799,2z"/>
</g>
<g>
	<path style="fill:#8BB7F0;" d="M19.513,37.5l-1.333-0.066C18.026,37.425,2.5,36.417,2.5,22.734C2.5,16.709,5.439,12.5,9.647,12.5   c2.487,0,4.791,1.082,4.888,1.128l0.344,0.165L26.207,37.5H19.513z"/>
	<path style="fill:#4E7AB5;" d="M9.647,13c2.402,0,4.646,1.067,4.671,1.079l0.186,0.089L25.414,37l-5.851,0.001l-1.354-0.067   C17.589,36.899,3,35.927,3,22.734C3,17.003,5.733,13,9.647,13 M9.647,12C5.145,12,2,16.414,2,22.734   c0,14.233,15.994,15.189,16.155,15.198L19.513,38H27L15.254,13.418l-0.505-0.242C14.65,13.129,12.26,12,9.647,12L9.647,12z"/>
</g>
<g>
	<path style="fill:#F78F8F;" d="M27.611,38.5c-3.129,0-5.908-0.621-8.036-1.797c-4.399-2.36-8.68-8.756-7.959-15.965   c-0.006-0.533,0-4.771,2.726-7.304l0.076-0.067c1.533-1.343,3.274-2.867,6.554-2.867c5.18,0,9.333,1.676,12.345,4.979   c5.026,5.513,5.691,14.574,4.913,19.319c-0.141,0.845-0.639,1.468-1.481,1.851C34.079,37.843,30.833,38.5,27.611,38.5z"/>
	<path style="fill:#C74343;" d="M20.971,11c5.033,0,9.062,1.62,11.976,4.816c4.907,5.381,5.552,14.252,4.788,18.9   c-0.113,0.681-0.504,1.164-1.189,1.476C33.938,37.358,30.765,38,27.611,38c-3.045,0-5.74-0.6-7.805-1.74   c-4.251-2.281-8.392-8.479-7.693-15.472l0.006-0.058l-0.001-0.058c-0.008-0.452-0.002-4.487,2.548-6.856l0.079-0.07   C16.214,12.458,17.879,11,20.971,11 M20.971,10c-3.47,0-5.364,1.66-6.888,2.994L14,13.068c-2.86,2.656-2.894,6.981-2.883,7.62   c-0.741,7.425,3.678,14.018,8.215,16.453C21.535,38.357,24.397,39,27.611,39c3.293,0,6.609-0.673,9.343-1.895   c1.247-0.566,1.651-1.519,1.768-2.225c0.795-4.842,0.11-14.094-5.036-19.737C30.576,11.73,26.296,10,20.971,10L20.971,10z"/>
</g>
<g>
	<path style="fill:#C74343;" d="M24,35c-1.534-0.257-3.006-0.751-4.329-1.479c-1.326-0.724-2.5-1.665-3.507-2.745   c-1.007-1.081-1.852-2.296-2.547-3.582c-0.68-1.259-1.488-2.678-1.809-3.944c0.095,2.812,0.887,5.445,2.095,7.694   c0.385,0.355,0.779,0.7,1.196,1.016c1.298,0.985,2.737,1.774,4.252,2.289C20.864,34.771,22.447,35.007,24,35z"/>
</g>
<g>
	<path style="fill:#C74343;" d="M21.572,10.43c-0.492,0-0.943,0.045-1.374,0.112c-0.089,0.107-0.16,0.193-0.164,0.197   c-1.1,1.207-2.055,2.551-2.762,4.016c-0.709,1.462-1.15,3.049-1.248,4.635c-0.106,1.586,0.14,3.157,0.624,4.611   c-0.225-1.519-0.188-3.055,0.165-4.494c0.346-1.441,0.99-2.775,1.835-3.948c0.845-1.174,1.882-2.196,3.019-3.075   c0.788-0.609,1.991-1.351,2.876-1.82C23.591,10.521,22.608,10.43,21.572,10.43z"/>
</g>
<g>
	<path style="fill:#C74343;" d="M20.01,12.184c0.645,0.64,1.028,1.193,1.445,1.829c0.395,0.624,0.737,1.269,1.022,1.934   c0.572,1.33,0.921,2.732,1.046,4.13c0.257,2.808-0.352,5.527-1.451,7.922c0.603-2.57,0.61-5.246-0.116-7.629   c-0.357-1.19-0.895-2.301-1.582-3.285c-0.341-0.492-0.722-0.952-1.13-1.373c-0.39-0.404-0.887-0.841-1.244-1.058L20.01,12.184z"/>
</g>
<g>
	<path style="fill:#C74343;" d="M22.929,18.024c1.686,0.401,3.079,1.086,4.414,1.979c1.31,0.895,2.455,2.023,3.335,3.314   c1.786,2.594,2.396,5.719,2.315,8.683c-0.267-2.962-1.255-5.886-3.158-8.038c-0.94-1.075-2.075-1.951-3.32-2.599   c-1.221-0.64-2.641-1.103-3.895-1.242L22.929,18.024z"/>
</g>
<g>
	<path style="fill:#4E7AB5;" d="M7,22c1.408-1.193,2.605-2.735,3.3-4.565c0.349-0.912,0.574-1.884,0.662-2.879   c0.051-0.677,0.056-1.334-0.02-2.024c-0.199-0.013-0.396-0.031-0.598-0.031c-0.385,0-0.756,0.047-1.119,0.114   c0.186,0.589,0.312,1.276,0.361,1.924c0.066,0.867,0.013,1.754-0.165,2.627C9.072,18.915,8.197,20.583,7,22z"/>
</g>
</svg>
