<?xml version="1.0" encoding="utf-8"?>
<!-- Generator: Adobe Illustrator 21.1.0, SVG Export Plug-In . SVG Version: 6.00 Build 0)  -->
<svg version="1.1" id="Слой_1" xmlns="http://www.w3.org/2000/svg" xmlns:xlink="http://www.w3.org/1999/xlink" x="0px" y="0px"
	 viewBox="0 0 118 33" style="enable-background:new 0 0 118 33;" xml:space="preserve">
<style type="text/css">
	.st0{fill:#4A5AEF;}
	.st1{fill:#979FA8;}
</style>
<path class="st0" d="M110.2,18.7h-6.9V0.3h6.9c3.7,0,7.2,1.9,7.2,6.2v6.2C117.3,16.9,113.9,18.7,110.2,18.7z M112.6,6.6
	c0-1.2-0.8-2-2.3-2H108v9.7h2.4c1.6,0,2.3-0.8,2.3-2V6.6z M88,0.3h12.8v4.4h-8.1v2.9h7.5v4h-7.5v2.8h8.1v4.4H88V0.3z M80.4,13.4
	l0.3-3.7l-0.2,0L78.1,16h-3.2l-2.5-6.3l-0.1,0l0.3,3.7v5.3h-4.7V0.3h4.7l3.9,9l3.9-9H85v18.4h-4.7L80.4,13.4z M60.5,15h-4.9
	l-1.1,3.7h-5l6.4-18.4h4.2l6.6,18.4h-5L60.5,15z M58.1,5.5H58l-1.4,5.4h2.8L58.1,5.5z M41.6,19c-3.6,0-7.3-2.1-7.3-6.4V6.3
	C34.3,2.1,38,0,41.6,0C44,0,46.8,1,48,3.9l-3.9,1.8c-1-2.5-5.1-1.9-5.1,0.5v6.3c0,2.9,5.4,2.9,5.4,0v-0.7h-2.9V8h7.4v4.6
	C48.9,16.8,45.3,19,41.6,19z M27.8,18.7l-4.3-5.9h-0.8v5.9H18V0.3h7.4c3.8,0,6.7,1.7,6.9,6.1c0,3.4-1.4,5.3-3.6,6l5,6.3H27.8z
	 M25.4,4.6h-2.7v4.2h2.7C28.4,8.8,28.4,4.6,25.4,4.6z M7.9,19c-3.8,0-7.7-2.1-7.7-6.3V6.3C0.2,2.1,4,0,7.8,0c3.8,0,7.7,2.1,7.7,6.3
	v6.3C15.5,16.9,11.7,19,7.9,19z M10.8,6.3c0-1.4-1.5-2.1-3-2.1C6.3,4.2,4.9,5,4.9,6.3v6.3c0,1.4,1.5,2,3,2c1.5,0,3-0.7,3-2V6.3z"/>
<path class="st1" d="M114.8,32.9v-4.2l-1.7,4.2h-0.6l-1.7-4.2v4.2h-1.3v-6h1.8l1.4,3.6l1.5-3.6h1.8v6H114.8z M104.8,33
	c-0.9,0-1.6-0.3-2.2-0.9c-0.6-0.6-0.9-1.3-0.9-2.2c0-0.9,0.3-1.6,0.9-2.2c0.6-0.6,1.3-0.9,2.2-0.9c0.9,0,1.7,0.3,2.2,0.9
	s0.9,1.3,0.9,2.2c0,0.9-0.3,1.6-0.9,2.2C106.5,32.7,105.7,33,104.8,33z M106.1,28.5c-0.3-0.4-0.8-0.6-1.3-0.6c-0.5,0-1,0.2-1.3,0.6
	c-0.3,0.4-0.5,0.8-0.5,1.4c0,0.6,0.2,1,0.5,1.4c0.3,0.4,0.8,0.6,1.3,0.6c0.5,0,1-0.2,1.3-0.6c0.3-0.4,0.5-0.8,0.5-1.4
	C106.6,29.3,106.5,28.9,106.1,28.5z M99.1,32.9l-1.8-2.4L97,30.8v2.1h-1.3v-2.1l-0.3-0.3l-1.8,2.4h-1.6l2.5-3.2l-2.4-2.8h1.6
	l1.9,2.4v-2.4H97v2.4l1.9-2.4h1.6l-2.4,2.8l2.5,3.2H99.1z M86.8,26.9H91V28h-3v1.3h2.9v1.1h-2.9v1.4h3v1.1h-4.2V26.9z M83.3,29.1
	c0.6,0,1.1,0.2,1.5,0.5c0.4,0.4,0.5,0.8,0.5,1.4c0,0.5-0.2,1-0.5,1.4c-0.4,0.4-0.8,0.5-1.5,0.5h-2.8v-6h4.4V28h-3.1v1.1H83.3z
	 M81.7,31.8h1.4c0.3,0,0.5-0.1,0.6-0.2c0.2-0.1,0.2-0.3,0.2-0.6c0-0.2-0.1-0.4-0.2-0.6c-0.2-0.1-0.4-0.2-0.6-0.2h-1.4V31.8z
	 M76,32.7c-0.3,0.2-0.7,0.3-1.2,0.3c-0.3,0-0.5,0-0.8-0.1c-0.2-0.1-0.4-0.2-0.6-0.3l0.5-1c0.3,0.2,0.5,0.3,0.8,0.3
	c0.2,0,0.4,0,0.5-0.1c0.1-0.1,0.2-0.3,0.4-0.5l-2.2-4.3h1.4l1.5,3.2l1.5-3.2h1.4l-2.5,4.8C76.5,32.2,76.3,32.5,76,32.7z M70.4,30.8
	h-1.5v2.1h-1.3v-6h2.8c0.6,0,1.1,0.2,1.5,0.6c0.4,0.4,0.5,0.8,0.5,1.4c0,0.5-0.2,1-0.5,1.4C71.5,30.6,71.1,30.8,70.4,30.8z
	 M70.9,28.3c-0.2-0.1-0.4-0.2-0.6-0.2h-1.4v1.6h1.4c0.3,0,0.5-0.1,0.6-0.2c0.2-0.1,0.2-0.3,0.2-0.6C71.1,28.6,71.1,28.4,70.9,28.3z
	 M61.5,31.9h-2.6l-0.4,1h-1.5l2.3-6H61l2.3,6h-1.5L61.5,31.9z M60.2,28.2l-0.9,2.6h1.9L60.2,28.2z M56.1,31.2c0,0.5-0.2,0.9-0.7,1.3
	s-1,0.5-1.8,0.5c-0.5,0-1-0.1-1.5-0.3c-0.4-0.2-0.8-0.4-1-0.7l0.7-0.9c0.2,0.2,0.5,0.4,0.8,0.5c0.3,0.1,0.6,0.2,1,0.2
	c0.4,0,0.7-0.1,0.9-0.2c0.2-0.1,0.3-0.3,0.3-0.6c0-0.5-0.4-0.7-1.3-0.7h-1.2v-1.1h1.2c0.4,0,0.7-0.1,0.9-0.2
	c0.2-0.1,0.3-0.3,0.3-0.5c0-0.2-0.1-0.4-0.3-0.5C54.1,28,53.8,28,53.5,28c-0.7,0-1.2,0.2-1.6,0.6l-0.6-0.8c0.3-0.3,0.6-0.5,1-0.7
	s0.9-0.3,1.4-0.3c0.7,0,1.3,0.1,1.7,0.4c0.4,0.3,0.7,0.7,0.7,1.2c0,0.4-0.1,0.7-0.4,0.9c-0.3,0.2-0.6,0.4-0.9,0.5
	c0.3,0,0.7,0.2,1,0.4C55.9,30.5,56.1,30.8,56.1,31.2z M42.6,26.9h4.2V28h-3v1.3h2.9v1.1h-2.9v1.4h3v1.1h-4.2V26.9z M39.4,28.9
	l-2.8,4h-1.2v-6h1.3v3.9l2.8-3.9h1.3v6h-1.3V28.9z M32.1,30.4h-2.8v2.5H28v-6h1.3v2.3h2.8v-2.3h1.3v6h-1.3V30.4z M22.1,26.9h4.2V28
	h-3v1.3h2.9v1.1h-2.9v1.4h3v1.1h-4.2V26.9z M18.9,30.6c-0.4,0.1-0.9,0.2-1.3,0.2c-0.7,0-1.3-0.2-1.7-0.6c-0.4-0.4-0.6-0.9-0.6-1.6
	v-1.7h1.3v1.7c0,0.7,0.4,1.1,1.1,1.1c0.4,0,0.8-0.1,1.1-0.2v-2.6h1.3v6h-1.3V30.6z M9.6,26.9h4.2V28h-3v1.3h2.9v1.1h-2.9v1.4h3v1.1
	H9.6V26.9z M6.4,28H4.6l-0.2,2c-0.1,0.6-0.2,1.1-0.3,1.5c-0.1,0.4-0.3,0.7-0.5,0.9c-0.2,0.2-0.4,0.3-0.7,0.4S2.3,33,2,33v-1.1
	c0.3,0,0.6-0.1,0.7-0.4C2.9,31.2,3,30.7,3.1,30l0.3-3.1h4.2v6H6.4V28z"/>
</svg>
