<svg 
 xmlns="http://www.w3.org/2000/svg"
 xmlns:xlink="http://www.w3.org/1999/xlink"
 width="0.388cm" height="0.67cm">
<path fill-rule="evenodd"  opacity="0.2" fill="rgb(255, 255, 255)"
 d="M9.476,12.313 C8.512,12.926 7.186,13.167 6.312,13.257 L7.046,13.981 L9.728,16.663 C10.129,17.074 10.129,17.737 9.728,18.139 L9.607,18.270 C9.195,18.672 8.532,18.672 8.120,18.270 C7.447,17.587 6.463,16.602 5.438,15.578 L2.757,18.270 C2.345,18.672 1.682,18.672 1.280,18.270 L1.159,18.139 C0.748,17.737 0.748,17.074 1.159,16.663 C1.843,15.980 2.817,14.995 3.841,13.981 L4.565,13.257 C3.701,13.167 2.355,12.936 1.380,12.313 C0.235,11.570 -0.267,11.138 0.175,10.234 C0.436,9.722 1.149,9.290 2.094,10.033 C2.094,10.033 3.369,11.048 5.428,11.048 C7.488,11.048 8.763,10.033 8.763,10.033 C9.707,9.290 10.421,9.722 10.682,10.234 C11.124,11.138 10.622,11.570 9.476,12.313 ZM5.428,9.681 C2.917,9.681 0.868,7.643 0.868,5.131 C0.868,2.610 2.917,0.571 5.428,0.571 C7.940,0.571 9.989,2.610 9.989,5.131 C9.989,7.643 7.940,9.681 5.428,9.681 ZM5.428,2.881 C4.193,2.881 3.189,3.886 3.189,5.131 C3.189,6.367 4.193,7.371 5.428,7.371 C6.664,7.371 7.668,6.367 7.668,5.131 C7.668,3.886 6.664,2.881 5.428,2.881 Z"/>
</svg>