<svg 
 xmlns="http://www.w3.org/2000/svg"
 xmlns:xlink="http://www.w3.org/1999/xlink"
 width="17px" height="13px">
<path fill-rule="evenodd"
 d="M14.404,2.171 C15.077,1.770 15.589,1.137 15.830,0.384 C15.207,0.755 14.504,1.026 13.771,1.167 C13.178,0.534 12.335,0.143 11.401,0.143 C9.603,0.143 8.156,1.599 8.156,3.387 C8.156,3.638 8.186,3.889 8.236,4.130 C5.545,3.990 3.144,2.704 1.547,0.735 C1.265,1.217 1.105,1.770 1.105,2.373 C1.105,3.497 1.677,4.492 2.551,5.074 C2.019,5.054 1.517,4.904 1.085,4.663 C1.085,4.673 1.085,4.693 1.085,4.703 C1.085,6.280 2.200,7.586 3.686,7.887 C3.415,7.957 3.124,7.997 2.833,7.997 C2.622,7.997 2.421,7.977 2.220,7.947 C2.632,9.233 3.827,10.167 5.253,10.197 C4.138,11.071 2.742,11.583 1.225,11.583 C0.954,11.583 0.703,11.573 0.442,11.543 C1.878,12.467 3.586,13.000 5.424,13.000 C11.391,13.000 14.655,8.058 14.655,3.769 C14.655,3.628 14.655,3.487 14.645,3.347 C15.278,2.885 15.830,2.312 16.272,1.669 C15.690,1.920 15.057,2.101 14.404,2.171 Z"/>
</svg>