<svg 
 xmlns="http://www.w3.org/2000/svg"
 xmlns:xlink="http://www.w3.org/1999/xlink"
 width="0.706cm" height="0.388cm">
<path fill-rule="evenodd"  opacity="0.2" fill="rgb(255, 255, 255)"
 d="M18.241,0.503 L15.348,0.523 C15.127,0.493 14.966,0.583 14.966,0.583 C14.966,0.583 14.796,0.674 14.715,0.895 C14.243,2.110 13.641,3.155 13.641,3.155 C12.355,5.345 11.832,5.465 11.622,5.324 C11.129,5.013 11.260,4.059 11.260,3.376 C11.260,1.246 11.581,0.362 10.627,0.131 C10.316,0.061 10.085,0.011 9.271,0.001 C8.237,-0.009 7.363,0.001 6.870,0.242 C6.539,0.402 6.288,0.764 6.439,0.784 C6.629,0.814 7.061,0.905 7.292,1.216 C7.292,1.216 7.543,1.628 7.584,2.532 C7.694,5.033 7.182,5.345 7.182,5.345 C6.790,5.555 6.107,5.204 5.103,3.135 C5.103,3.135 4.520,2.110 4.068,0.985 C3.988,0.774 3.827,0.664 3.827,0.664 C3.827,0.664 3.646,0.523 3.385,0.483 L0.633,0.503 C0.211,0.503 0.060,0.694 0.060,0.694 C0.060,0.694 -0.091,0.854 0.050,1.186 C2.200,6.239 4.651,8.770 4.651,8.770 C4.651,8.770 6.891,11.110 9.432,10.949 L10.587,10.949 C10.938,10.919 11.119,10.728 11.119,10.728 C11.119,10.728 11.280,10.548 11.270,10.216 C11.250,8.669 11.973,8.438 11.973,8.438 C12.676,8.217 13.580,9.935 14.545,10.598 C14.545,10.598 15.278,11.100 15.830,10.990 L18.402,10.949 C19.758,10.939 19.115,9.814 19.115,9.814 C19.065,9.724 18.743,9.031 17.196,7.595 C15.589,6.098 15.800,6.339 17.749,3.747 C18.934,2.170 19.406,1.206 19.255,0.794 C19.255,0.794 19.115,0.392 18.241,0.503 Z"/>
</svg>